# xmcd
# 
# Track frame offsets:
#     150
#     12295
#     24882
#     36997
#     49902
#     61765
#     72327
#     84445
#     103027
#     132180
#     143227
#     154505
#     163350
#     173572
#     188050
#     200845
# 
# Disc length: 2817
# 
# Revision: 4
# Processed by: cddbd v1.5.2PL0 Copyright (c) Steve Scherf et al.
# Submitted via: fre:ac v1.0.17
# 
DISCID=d60aff10
DTITLE=Various Artist - Soul Power ~ The Very Best Of Rhythm and Blues [CD 2) 
DYEAR=1992
DGENRE=R&B
TTITLE0=Otis Redding - (Sittin' On) The Dock Of The Bay
TTITLE1=Joe Turner - Flip Flop And Fly
TTITLE2=The Drifters - Under The Boardwalk
TTITLE3=Ray Charles - I Got A Woman
TTITLE4=La Vern Baker - Saved
TTITLE5=Rufus Thomas - Jump Back
TTITLE6=Aretha Franklin - (You Make Me Feel Like) A Natural Woman
TTITLE7=Ben E. King - Supernatural Thing
TTITLE8=Ray Charles - What'd I Say (Part 1 and 2)
TTITLE9=Wilson Pickett - In The Midnight Hour
TTITLE10=Sam And Dave - Hold On, I'm Comin'
TTITLE11=Solomon Burke - Got To Get You Off My Mind
TTITLE12=Aretha Franklin - Think
TTITLE13=Otis Redding - I've Been Loving You Too Long
TTITLE14=Percy Sledge - When a Man Loves A Woman
TTITLE15=The Bar-Kays - Soul Finger
EXTD=YEAR: 1992
EXTT0=
EXTT1=
EXTT2=
EXTT3=
EXTT4=
EXTT5=
EXTT6=
EXTT7=
EXTT8=
EXTT9=
EXTT10=
EXTT11=
EXTT12=
EXTT13=
EXTT14=
EXTT15=
PLAYORDER=
